# xmcd
#
# Track frame offsets:
#	150
#	16968
#	28873
#	48198
#	65026
#	80532
#	92448
#	108760
#	123933
#	136544
#	153697
#	166885
#	178492
#
# Disc length: 2583 seconds
#
# Revision: 1
# Processed by: cddbd v1.5.2PL0 Copyright (c) Steve Scherf et al.
# Submitted via: audiograbber 1.83.01
#
DISCID=a10a150d
DTITLE=Mark Hackley - Family Man In Crisis Mark Hackley
DYEAR=1900
DGENRE=
TTITLE0=Lonely Feelings
TTITLE1=Warn But Cold
TTITLE2=Move On Your Dreams
TTITLE3=How About You
TTITLE4=Family Man
TTITLE5=Days Roll Away
TTITLE6=Come Up
TTITLE7=Rainbow
TTITLE8=Bumper
TTITLE9=If I Lost You
TTITLE10=Love On Me
TTITLE11=Drifting Away
TTITLE12=Ballad Of A Travelling Salesman
EXTD=
EXTT0=
EXTT1=
EXTT2=
EXTT3=
EXTT4=
EXTT5=
EXTT6=
EXTT7=
EXTT8=
EXTT9=
EXTT10=
EXTT11=
EXTT12=
PLAYORDER=
